<?xml version="1.0" encoding="UTF-8"?>
<svg id="Layer_1" xmlns="http://www.w3.org/2000/svg" version="1.1" viewBox="0 0 877 331">
  <!-- Generator: Adobe Illustrator 29.1.0, SVG Export Plug-In . SVG Version: 2.1.0 Build 142)  -->
  <defs>
    <style>
      .st0 {
        fill: #ff3d00;
      }
    </style>
  </defs>
  <path class="st0" d="M328.3,22.2c-.6,2.9-2.5,5-5.6,6.3-1.4.5-3.8,1.1-7.3,1.9-5.8,1-14.6,2.5-26.1,4.5-1.7.2-3.6.7-5.6,1.3-1.5,1.7-15.1,38-40.7,108.8-5,13.8-7.8,21.3-8.4,22.4-1.5,2.6-4.4,3.9-8.6,3.9s-6.2-.9-8.6-2.8c-2.2-1.9-3.4-4.3-3.4-7.3s0-1.7.2-2.6c1.2-5.8,9.2-28.3,23.9-67.4l19.6-50.9c-10.8,2.5-18.2,3.7-22.2,3.7-3.5-.1-6.9-1.4-10.3-3.9-3.2-2.5-4.5-5.2-3.9-8.2.6-3.2,3.3-5.2,8-6,3.5-.4,7-.7,10.4-.9,13.2-2.5,26.3-5,39.4-7.5,14.8-2.6,28.3-3.9,40.5-3.9s4.8.8,6.5,2.4c1.9,1.6,2.6,3.7,2.1,6.2ZM374.3,44.4c.9,4.5,1.3,11.9,1.3,22.2s-.6,27.1-1.9,42.9c-1.1,15.8-2.4,27.1-3.9,33.8-.7,3.7-1.7,6.2-3,7.3-4.4,4-9.1,6-14.4,6s-4.6-.9-5.6-2.6c-.2-.5-.4-1.6-.4-3.4,0-3.6.5-10.2,1.5-19.8.5-5.7,1-11.4,1.5-17.2-11.4,2.6-26.2,5.2-44.4,7.7-1.5,1.7-6.3,8.3-14.4,19.6-1.7,2.5-3.1,4-4.1,4.7-1.5,1.1-3.5,1.7-6.2,1.7s-5-.6-6.9-1.9c-2.2-1.5-3-3.6-2.4-6.3,1.5-7.2,14.1-24.8,37.7-52.6,22.4-26.4,35.3-40.4,38.8-42,6.1-2.9,12.2-4.3,18.3-4.3s7.9,1.4,8.4,4.3ZM353.8,62.3c-1.7.1-12.9,13.2-33.4,39.2,11.2-3.2,21.2-5.5,30-6.7,2.4-21.3,3.5-31.7,3.5-31.3,0-.7,0-1.1-.2-1.1ZM522.5,61.2c-4.4,11.3-8.7,22.6-13.1,34-4.9,13.2-8.6,24.6-11.2,34.1-.9,3.1-3.6,5.7-8.2,7.6-3.6,1.5-6.9,2.2-9.9,2.2s-4-.4-5.2-1.3c-2.6-2.1-9.5-11.4-20.7-28-3.5-5.1-8.8-12.8-15.9-23-8.6,29.1-14.8,48.4-18.7,57.8-1.6,3.9-4.3,5.8-8,5.8s-6.6-1.9-9-5.8c-2.2-3.9-3-7.3-2.4-10.4.6-3.2,4.9-15.9,12.7-38.1,8-22.3,12.4-35.6,13.4-39.9.6-2.4,2.4-4.3,5.2-5.8,2.9-1.5,5.6-2.2,8.2-2.2s4.3.6,5.4,1.9c1.2,1.1,8.2,11.2,20.9,30.2l17.4,25.9c11.3-37.9,19.1-61.1,23.3-69.6,1.7-3.2,4.4-4.9,8-4.9s6.5,1.4,8.8,4.1c2.4,2.7,3.5,5.8,3.5,9.3s-1.6,7.8-4.7,15.9ZM605.9,90.8c-3.1,9.8-10.1,19.2-20.9,28.2-11.2,9.2-21.6,13.8-31.3,13.8s-13.4-2.4-17.9-7.1c-4-4.4-6-9.8-6-16.4s.2-4,.6-6.2c2.4-10.6,8.5-21.1,18.3-31.5,11.3-11.9,23.1-17.9,35.3-17.9s8.9,1.3,11,3.9c9.5.5,14.2,6.1,14.2,16.8s-1.1,10.1-3.2,16.4ZM588.5,75.9c-1.2-.5-2.6-.7-3.9-.7-6.2,0-13.4,3.7-21.6,11-8.2,7.3-12.9,13.9-14.2,19.8-.6,3.1.4,4.7,3,4.7s7-1.2,11.6-3.5c4.7-2.4,8.3-4.8,10.8-7.3,2.5-2.6,5.3-6.4,8.4-11.4,3.1-5.1,5.1-9.3,6-12.5Z"/>
  <path class="st0" d="M133.2,191.2c-.2,1.2-.9,2.4-2.1,3.5-11.6,12.2-33.2,36.6-64.7,73.3,0,0-.7,1.2-2.2,3.5-1.7,2.7-3.4,4.9-5,6.5-2.1,2-5.2,4.2-9.1,6.5-5,3.1-8.7,4.7-11.2,4.7s-5-1.3-5.6-3.9c-9.1-40.9-13.6-67.5-13.6-79.9s.2-4.5.6-6c.4-2,1.1-3.6,2.2-4.9,3.4-3.5,8.3-5.2,14.7-5.2s9.1,2.4,9.1,7.1c0,18.4,2.6,38.6,7.8,60.6,5.6-6.7,14.4-17.2,26.3-31.3,16-18.5,27.9-30.6,35.5-36.2,3.1-2.4,7.1-3.5,11.9-3.5s6.2,1.7,5.4,5ZM206,277.4c-1.4,6.3-5.4,9.5-12.1,9.5s-10.8-2.1-12.5-6.2c-.5-1.1-.2-9.4.7-24.8-13.1,3.4-29.7,6.2-49.8,8.6-5.7,7.7-14.3,19.3-25.8,34.7-2.2,2.9-4,5-5.4,6.3-2.9,3-7.1,4.5-12.7,4.5s-5.4-1.4-5.4-4.1c0-5,13.8-26.2,41.4-63.6,27.7-37.6,44.4-57.8,50-60.6,5.6-3,11.2-4.5,16.8-4.5s8.6,1.4,10.1,4.1c4.5,8.2,6.7,29,6.7,62.5s-.7,27.2-2.1,33.6ZM182.9,233.9c-.5-18.8-1-30.4-1.5-34.9-6,6-17,20.3-33.2,42.9,13.3-4.4,24.9-7,34.7-8ZM293.6,256.5c-.4,1.7-1.4,3.4-3.2,4.9-4.1,3.2-11.3,8-21.5,14.2-12.2,7.3-20.8,11.5-25.7,12.5-.7.1-1.6.2-2.4.2-4.4,0-8.8-2.4-13.4-7.1-1-1-1.1-3.4-.4-7.1,1.9-8.8,6.2-23.4,13.1-43.7,7.2-21.5,12.8-35.7,16.6-42.5,2-3.6,5.2-5.4,9.5-5.4s8.6,2.4,9.7,7.3c.2,1.1.1,2.7-.4,4.9-.6,3-3.8,12.9-9.5,29.7-5.6,16.7-9.3,29-11,36.9l25.4-11.4c1.6-.7,3.3-1.1,5-1.1s4.4.7,6.2,2.2c1.9,1.4,2.6,3.2,2.1,5.6ZM409.2,188.7c-.4,1.1-3.4,2.7-9,4.9-6.1,2.2-12.9,4.1-20.3,5.6-8.3,1.5-19.6,3.7-33.8,6.7-2.4,6.2-6.2,17.4-11.4,33.6,5.3-1.2,10.6-2.5,15.9-3.7,6-1.2,11.3-1.9,16-2.1,5.6-.1,10.6,1.2,15.1,3.9,4.1,2.6,5.9,5,5.4,7.1-1,2.5-3.4,4.7-7.1,6.7-3.7,1.9-7,2.8-9.7,2.8h-1.7c-5.7,0-19.2,2.8-40.5,8.4-1,3.6-2.5,9-4.7,16.2,1.5-.5,3.7-1.2,6.5-2.2,6.3-2,10.9-3,13.8-3s7.3,1.1,12.1,3.2c5,2.1,7.3,4,6.9,5.8-.9,4.6-12.2,9.9-34,15.9-7.7,2.1-12.4,3.2-14.2,3.2-6.5,0-10.7-1.9-12.7-5.8-1.5-2.7-2.2-6.5-2.2-11.4,0-12.9,5.3-33.2,15.9-60.8,1.4-3.5,4.5-11.2,9.5-23.1,0-1,.1-2.5.4-4.5,1.5-7.1,6.2-10.6,14.2-10.6s3.4.2,5,.6c7.1-2.5,15.5-4.7,25.2-6.7,9.3-2,16.4-3,21.1-3s6.7,1.2,11.2,3.5c5.5,2.7,7.8,5.7,6.9,9ZM523.9,204.2c-4.4,11.3-8.7,22.6-13.1,34-4.9,13.2-8.6,24.6-11.2,34.1-.9,3.1-3.6,5.7-8.2,7.6-3.6,1.5-6.9,2.2-9.9,2.2s-4-.4-5.2-1.3c-2.6-2.1-9.5-11.4-20.7-28-3.5-5.1-8.8-12.8-15.9-23-8.6,29.1-14.8,48.4-18.7,57.8-1.6,3.9-4.3,5.8-8,5.8s-6.6-1.9-9-5.8c-2.2-3.9-3-7.3-2.4-10.4.6-3.2,4.9-15.9,12.7-38.1,8-22.3,12.4-35.6,13.4-39.9.6-2.4,2.4-4.3,5.2-5.8,2.9-1.5,5.6-2.2,8.2-2.2s4.3.6,5.4,1.9c1.2,1.1,8.2,11.2,20.9,30.2l17.4,25.9c11.3-37.9,19.1-61.1,23.3-69.6,1.7-3.2,4.4-4.9,8-4.9s6.5,1.4,8.8,4.1c2.4,2.7,3.5,5.8,3.5,9.3s-1.6,7.8-4.7,15.9ZM651.7,165.2c-.6,2.9-2.5,5-5.6,6.3-1.4.5-3.8,1.1-7.3,1.9-5.8,1-14.6,2.5-26.1,4.5-1.7.2-3.6.7-5.6,1.3-1.5,1.7-15.1,38-40.7,108.8-5,13.8-7.8,21.3-8.4,22.4-1.5,2.6-4.4,3.9-8.6,3.9s-6.2-.9-8.6-2.8c-2.2-1.9-3.4-4.3-3.4-7.3s0-1.7.2-2.6c1.2-5.8,9.2-28.3,23.9-67.4l19.6-50.9c-10.8,2.5-18.2,3.7-22.2,3.7-3.5-.1-6.9-1.4-10.3-3.9-3.2-2.5-4.5-5.2-3.9-8.2.6-3.2,3.3-5.2,8-6,3.5-.4,7-.7,10.4-.9,13.2-2.5,26.3-5,39.4-7.5,14.8-2.6,28.3-3.9,40.5-3.9s4.8.8,6.5,2.4c1.9,1.6,2.5,3.7,2.1,6.2ZM652.8,211.1c.2,1.7,0,4.4-.7,7.8-1.9,9-5.7,20.6-11.6,35.1-6.2,15.3-10.9,23.9-14,25.8-1.6,1-3.2,1.5-4.9,1.5s-4-1.4-5.6-4.3c-1.2-2.4-2.1-4.9-2.4-7.5-.4-2,0-5.5,1.1-10.6,1.7-8.2,4.5-18.3,8.4-30.2,4-11.9,6.8-19,8.6-21.1,1.9-2.2,4.9-3.4,9.1-3.4,7.3,0,11.3,2.3,11.9,6.9ZM786.3,204.2c-4.4,11.3-8.7,22.6-13.1,34-4.9,13.2-8.6,24.6-11.2,34.1-.9,3.1-3.6,5.7-8.2,7.6-3.6,1.5-6.9,2.2-9.9,2.2s-4-.4-5.2-1.3c-2.6-2.1-9.5-11.4-20.7-28-3.5-5.1-8.8-12.8-15.9-23-8.6,29.1-14.8,48.4-18.7,57.8-1.6,3.9-4.3,5.8-8,5.8s-6.6-1.9-9-5.8c-2.2-3.9-3-7.3-2.4-10.4.6-3.2,4.9-15.9,12.7-38.1,8-22.3,12.4-35.6,13.4-39.9.6-2.4,2.4-4.3,5.2-5.8,2.9-1.5,5.6-2.2,8.2-2.2s4.3.6,5.4,1.9c1.2,1.1,8.2,11.2,20.9,30.2l17.4,25.9c11.3-37.9,19.1-61.1,23.3-69.6,1.7-3.2,4.4-4.9,8-4.9s6.5,1.4,8.8,4.1c2.4,2.7,3.5,5.8,3.5,9.3s-1.6,7.8-4.7,15.9ZM869.6,233.9c-3.1,9.8-10.1,19.2-20.9,28.2-11.2,9.2-21.6,13.8-31.3,13.8s-13.4-2.4-17.9-7.1c-4-4.4-6-9.8-6-16.4s.2-4,.6-6.2c2.4-10.6,8.5-21.1,18.3-31.5,11.3-11.9,23.1-17.9,35.3-17.9s8.9,1.3,11,3.9c9.5.5,14.2,6.1,14.2,16.8s-1.1,10.1-3.2,16.4ZM852.3,219c-1.2-.5-2.5-.7-3.9-.7-6.2,0-13.4,3.7-21.6,11-8.2,7.3-12.9,13.9-14.2,19.8-.6,3.1.4,4.7,3,4.7s7-1.2,11.6-3.5c4.7-2.4,8.3-4.8,10.8-7.3,2.5-2.6,5.3-6.4,8.4-11.4,3.1-5.1,5.1-9.3,6-12.5Z"/>
</svg>