<svg width="422" height="179" viewBox="0 0 422 179" fill="none" xmlns="http://www.w3.org/2000/svg">
<path d="M0.309373 129.2V121.2H32.5094C33.9094 116.4 35.9094 111.8 38.3094 107C53.3094 75.8 85.1094 44 123.109 27.6L130.709 35C117.509 66.2 101.109 86.2 77.7094 106.2L72.5094 100.2C93.7094 82 108.509 64.6 120.709 37.6C86.9094 53.6 59.3094 82.4 45.5094 110.6C43.7094 114.2 42.1094 117.8 40.9094 121.2H82.1094L86.3094 128C73.3094 153 51.7094 173.6 41.3094 177.6C28.5094 165.6 25.7094 148 30.1094 129.2H0.309373ZM38.3094 129.2C34.5094 144.2 35.7094 157.8 42.9094 167.6C52.3094 161.4 66.3094 146.8 76.5094 129.2H38.3094ZM205.559 77.4L211.559 82.6L130.959 177L121.959 172.6C126.559 155.4 137.359 128 149.559 98.2L88.5594 178L80.9594 173.6L165.359 0.599991L172.559 4.19999L103.759 145L155.159 77.4L164.959 82.6C151.159 115.2 139.559 143.6 133.759 161.4L205.559 77.4ZM246.903 77.4L252.903 82.6L167.303 177.6L159.303 172.8L205.503 77.4L212.703 81L176.903 154.8L246.903 77.4ZM218.903 68.2L211.703 64.6L229.703 27.8L236.903 31.4L218.903 68.2ZM295.509 83V91H261.709C258.309 114.4 252.709 133.2 246.909 145.2C236.309 166.8 220.909 177.2 206.509 175.6C200.109 162 204.509 144 212.709 127C221.909 108 236.509 89.2 246.909 77.4L252.909 82.6C242.509 94.4 228.709 112.4 219.909 130.6C213.309 144 209.909 157.2 212.309 167.6C221.509 166.2 231.909 157.6 239.709 141.6C245.509 130 250.709 111.4 254.109 87.6L257.909 83H295.509ZM334.031 83V91H300.431L258.031 178.2L250.831 174.6L291.631 91H263.831V83H295.431L326.231 19.8L333.431 23.4L304.431 83H334.031ZM369.578 83V91H335.978L293.578 178.2L286.378 174.6L327.178 91H299.378V83H330.978L361.778 19.8L368.978 23.4L339.978 83H369.578ZM421.291 83V91H387.491C384.091 114.4 378.491 133.2 372.691 145.2C362.091 166.8 346.691 177.2 332.291 175.6C325.891 162 330.291 144 338.491 127C347.691 108 362.291 89.2 372.691 77.4L378.691 82.6C368.291 94.4 354.491 112.4 345.691 130.6C339.091 144 335.691 157.2 338.091 167.6C347.291 166.2 357.691 157.6 365.491 141.6C371.291 130 376.491 111.4 379.891 87.6L383.691 83H421.291Z" fill="white"/>
</svg>
