<svg width="877" height="331" viewBox="0 0 877 331" fill="none" xmlns="http://www.w3.org/2000/svg">
<path d="M328.301 22.172C327.679 25.0332 325.813 27.1479 322.704 28.5163C321.335 29.0139 318.909 29.6359 315.426 30.3822C309.58 31.3774 300.872 32.8702 289.303 34.8605C287.561 35.1093 285.695 35.5447 283.705 36.1667C282.212 37.9083 268.653 74.17 243.027 144.952C238.051 158.76 235.252 166.224 234.63 167.344C233.138 169.956 230.276 171.262 226.047 171.262C222.688 171.262 219.827 170.329 217.464 168.463C215.224 166.597 214.105 164.171 214.105 161.186C214.105 160.315 214.167 159.444 214.291 158.574C215.535 152.727 223.497 130.273 238.176 91.2125L257.768 40.2718C246.946 42.7598 239.544 44.0037 235.563 44.0037C232.08 43.8793 228.659 42.5732 225.301 40.0852C222.066 37.5973 220.76 34.8605 221.382 31.875C222.004 28.6407 224.679 26.6503 229.406 25.9039C232.889 25.5307 236.372 25.2198 239.855 24.971C253.041 22.483 266.165 19.9951 279.227 17.5071C294.03 14.8948 307.527 13.5886 319.718 13.5886C322.33 13.5886 324.507 14.3972 326.249 16.0144C328.115 17.6315 328.799 19.6841 328.301 22.172ZM374.307 44.3769C375.178 48.8552 375.614 56.2568 375.614 66.5818C375.614 79.3947 374.992 93.7004 373.748 109.499C372.628 125.297 371.322 136.555 369.829 143.273C369.083 147.005 368.088 149.43 366.844 150.55C362.49 154.531 357.7 156.521 352.476 156.521C349.739 156.521 347.873 155.65 346.878 153.909C346.629 153.411 346.505 152.291 346.505 150.55C346.505 146.942 347.002 140.349 347.997 130.771C348.495 125.048 348.993 119.326 349.49 113.604C338.046 116.216 323.242 118.766 305.08 121.254C303.588 122.996 298.798 129.527 290.713 140.847C288.971 143.335 287.603 144.89 286.607 145.512C285.115 146.631 283.062 147.191 280.45 147.191C277.713 147.191 275.412 146.569 273.546 145.325C271.307 143.832 270.498 141.718 271.12 138.981C272.613 131.766 285.177 114.226 308.812 86.361C331.204 59.9888 344.141 45.9941 347.624 44.3769C353.72 41.5158 359.815 40.0852 365.911 40.0852C371.011 40.0852 373.81 41.5158 374.307 44.3769ZM353.782 62.2901C352.04 62.4145 340.907 75.4762 320.381 101.475C331.577 98.2409 341.591 96.0017 350.423 94.7578C352.787 73.4859 353.969 63.0365 353.969 63.4097C353.969 62.6633 353.906 62.2901 353.782 62.2901ZM522.495 61.1705C518.141 72.4907 513.787 83.8108 509.433 95.131C504.582 108.317 500.85 119.699 498.238 129.278C497.367 132.388 494.63 134.938 490.027 136.928C486.42 138.421 483.123 139.168 480.138 139.168C477.899 139.168 476.157 138.732 474.913 137.861C472.301 135.747 465.397 126.417 454.201 109.872C450.718 104.772 445.431 97.1213 438.34 86.9208C429.757 116.03 423.537 135.311 419.681 144.765C418.064 148.622 415.389 150.55 411.657 150.55C408.05 150.55 405.064 148.622 402.701 144.765C400.461 140.909 399.653 137.426 400.275 134.316C400.897 131.082 405.126 118.393 412.963 96.2505C420.925 73.9834 425.403 60.6729 426.398 56.319C427.02 53.9555 428.762 52.0273 431.623 50.5346C434.484 49.0418 437.221 48.2954 439.833 48.2954C442.321 48.2954 444.125 48.9174 445.244 50.1614C446.488 51.281 453.455 61.3571 466.143 80.3899L483.497 106.327C494.817 68.3856 502.592 45.1855 506.821 36.7265C508.563 33.4922 511.237 31.875 514.845 31.875C518.452 31.875 521.376 33.2434 523.615 35.9801C525.978 38.7169 527.16 41.8268 527.16 45.3099C527.16 47.7978 525.605 53.0847 522.495 61.1705ZM605.879 90.8393C602.769 100.667 595.802 110.059 584.98 119.015C573.784 128.221 563.335 132.823 553.632 132.823C546.168 132.823 540.197 130.46 535.719 125.733C531.738 121.379 529.748 115.905 529.748 109.312C529.748 107.322 529.934 105.269 530.307 103.155C532.671 92.5808 538.766 82.0693 548.594 71.6199C559.914 59.6778 571.669 53.7067 583.86 53.7067C589.085 53.7067 592.755 55.0129 594.869 57.6252C604.324 58.1228 609.051 63.7207 609.051 74.4188C609.051 79.0215 607.993 84.495 605.879 90.8393ZM588.525 75.9116C587.281 75.414 585.975 75.1652 584.607 75.1652C578.387 75.1652 571.172 78.8349 562.962 86.1744C554.751 93.5138 550.024 100.107 548.78 105.954C548.158 109.063 549.154 110.618 551.766 110.618C554.876 110.618 558.732 109.437 563.335 107.073C568.062 104.71 571.669 102.284 574.157 99.7959C576.645 97.1835 579.444 93.3894 582.554 88.4135C585.664 83.3132 587.654 79.1459 588.525 75.9116Z" fill="white"/>
<path d="M133.207 191.166C132.958 192.41 132.274 193.591 131.154 194.711C119.585 206.902 98.0023 231.346 66.4055 268.043C66.4055 268.043 65.6591 269.225 64.1663 271.588C62.4248 274.325 60.7454 276.502 59.1282 278.119C57.0135 280.11 53.9657 282.287 49.985 284.65C45.0092 287.76 41.2772 289.315 38.7893 289.315C35.6794 289.315 33.8134 288.009 33.1914 285.396C24.1104 244.47 19.5699 217.849 19.5699 205.534C19.5699 203.046 19.7565 201.055 20.1297 199.562C20.5029 197.572 21.2493 195.955 22.3689 194.711C25.7276 191.228 30.6413 189.486 37.1099 189.486C43.2054 189.486 46.2531 191.85 46.2531 196.577C46.2531 214.988 48.8655 235.202 54.0901 257.221C59.688 250.503 68.458 240.054 80.4001 225.872C96.4474 207.337 108.265 195.271 115.853 189.673C118.963 187.309 122.944 186.128 127.795 186.128C132.149 186.128 133.953 187.807 133.207 191.166ZM206 277.373C204.631 283.717 200.588 286.889 193.871 286.889C187.278 286.889 183.11 284.837 181.369 280.732C180.871 279.612 181.12 271.34 182.115 255.914C169.054 259.273 152.447 262.134 132.294 264.498C126.572 272.21 117.988 283.779 106.544 299.205C104.305 302.066 102.501 304.18 101.133 305.549C98.2715 308.534 94.042 310.027 88.4442 310.027C84.8367 310.027 83.0329 308.659 83.0329 305.922C83.0329 300.946 96.841 279.736 124.457 242.293C152.198 204.725 168.867 184.51 174.465 181.649C180.063 178.664 185.661 177.171 191.258 177.171C196.483 177.171 199.842 178.539 201.335 181.276C205.813 189.486 208.052 210.323 208.052 243.786C208.052 259.833 207.368 271.029 206 277.373ZM182.862 233.896C182.364 215.112 181.866 203.481 181.369 199.003C175.398 204.974 164.326 219.279 148.155 241.92C161.465 237.566 173.034 234.891 182.862 233.896ZM293.599 256.474C293.226 258.216 292.168 259.833 290.427 261.326C286.322 264.56 279.169 269.287 268.968 275.507C256.777 282.846 248.194 287.014 243.218 288.009C242.472 288.133 241.663 288.195 240.792 288.195C236.438 288.195 231.96 285.832 227.357 281.105C226.362 280.11 226.238 277.746 226.984 274.014C228.85 265.182 233.204 250.627 240.046 230.351C247.261 208.83 252.797 194.649 256.653 187.807C258.643 184.199 261.815 182.396 266.169 182.396C271.518 182.396 274.753 184.821 275.872 189.673C276.121 190.792 275.997 192.41 275.499 194.524C274.877 197.51 271.705 207.399 265.983 224.193C260.385 240.862 256.715 253.178 254.974 261.139L280.351 249.757C281.968 249.01 283.647 248.637 285.389 248.637C287.752 248.637 289.805 249.384 291.546 250.876C293.412 252.245 294.096 254.111 293.599 256.474ZM409.183 188.74C408.81 189.859 405.825 191.477 400.227 193.591C394.131 195.831 387.352 197.696 379.888 199.189C371.553 200.682 360.295 202.921 346.114 205.907C343.75 212.127 339.956 223.322 334.732 239.494C340.081 238.25 345.368 237.006 350.592 235.762C356.563 234.518 361.912 233.834 366.639 233.709C372.237 233.585 377.275 234.891 381.754 237.628C385.859 240.24 387.663 242.604 387.165 244.719C386.17 247.207 383.806 249.446 380.074 251.436C376.342 253.302 373.108 254.235 370.371 254.235C370.123 254.235 369.812 254.235 369.438 254.235C369.065 254.235 368.816 254.235 368.692 254.235C362.97 254.235 349.473 257.034 328.201 262.632C327.206 266.239 325.651 271.651 323.536 278.866C325.029 278.368 327.206 277.622 330.067 276.626C336.411 274.636 341.014 273.641 343.875 273.641C347.109 273.641 351.152 274.698 356.004 276.813C360.979 278.928 363.281 280.856 362.908 282.598C362.037 287.2 350.717 292.487 328.947 298.458C321.234 300.573 316.507 301.63 314.766 301.63C308.297 301.63 304.068 299.702 302.077 295.846C300.585 293.109 299.838 289.315 299.838 284.464C299.838 271.526 305.125 251.249 315.699 223.633C317.067 220.15 320.239 212.438 325.215 200.495C325.215 199.5 325.34 198.007 325.588 196.017C327.081 188.926 331.808 185.381 339.77 185.381C341.511 185.381 343.191 185.568 344.808 185.941C351.898 183.453 360.295 181.214 369.998 179.223C379.328 177.233 386.356 176.238 391.084 176.238C394.069 176.238 397.801 177.42 402.279 179.783C407.753 182.52 410.054 185.506 409.183 188.74ZM523.861 204.227C519.507 215.547 515.153 226.868 510.799 238.188C505.948 251.374 502.216 262.756 499.604 272.335C498.733 275.445 495.996 277.995 491.393 279.985C487.786 281.478 484.489 282.224 481.504 282.224C479.265 282.224 477.523 281.789 476.279 280.918C473.667 278.803 466.763 269.474 455.567 252.929C452.084 247.829 446.797 240.178 439.706 229.978C431.123 259.086 424.903 278.368 421.047 287.822C419.43 291.679 416.755 293.607 413.023 293.607C409.416 293.607 406.43 291.679 404.066 287.822C401.827 283.966 401.019 280.483 401.641 277.373C402.263 274.139 406.492 261.45 414.329 239.307C422.291 217.04 426.769 203.73 427.764 199.376C428.386 197.012 430.128 195.084 432.989 193.591C435.85 192.099 438.587 191.352 441.199 191.352C443.687 191.352 445.491 191.974 446.61 193.218C447.854 194.338 454.821 204.414 467.509 223.447L484.862 249.384C496.183 211.442 503.957 188.242 508.187 179.783C509.928 176.549 512.603 174.932 516.211 174.932C519.818 174.932 522.741 176.3 524.981 179.037C527.344 181.774 528.526 184.884 528.526 188.367C528.526 190.855 526.971 196.142 523.861 204.227ZM651.654 165.229C651.032 168.09 649.166 170.205 646.056 171.573C644.688 172.071 642.262 172.693 638.779 173.439C632.933 174.434 624.225 175.927 612.656 177.917C610.914 178.166 609.048 178.602 607.058 179.223C605.565 180.965 592.006 217.227 566.38 288.009C561.404 301.817 558.605 309.281 557.983 310.4C556.49 313.013 553.629 314.319 549.4 314.319C546.041 314.319 543.18 313.386 540.816 311.52C538.577 309.654 537.458 307.228 537.458 304.243C537.458 303.372 537.52 302.501 537.644 301.63C538.888 295.784 546.85 273.33 561.529 234.269L581.121 183.329C570.299 185.817 562.897 187.061 558.916 187.061C555.433 186.936 552.012 185.63 548.653 183.142C545.419 180.654 544.113 177.917 544.735 174.932C545.357 171.697 548.031 169.707 552.759 168.961C556.242 168.588 559.725 168.277 563.208 168.028C576.394 165.54 589.518 163.052 602.58 160.564C617.383 157.952 630.88 156.645 643.071 156.645C645.683 156.645 647.86 157.454 649.602 159.071C651.468 160.688 652.152 162.741 651.654 165.229ZM652.786 211.131C653.034 212.873 652.786 215.485 652.039 218.968C650.173 227.925 646.317 239.618 640.47 254.048C634.25 269.349 629.585 277.933 626.476 279.799C624.858 280.794 623.241 281.291 621.624 281.291C619.509 281.291 617.643 279.861 616.026 277C614.782 274.636 613.974 272.148 613.6 269.536C613.227 267.545 613.6 264 614.72 258.9C616.462 250.69 619.261 240.614 623.117 228.671C627.098 216.729 629.959 209.701 631.7 207.586C633.566 205.347 636.614 204.227 640.843 204.227C648.183 204.227 652.164 206.529 652.786 211.131ZM786.261 204.227C781.907 215.547 777.553 226.868 773.2 238.188C768.348 251.374 764.616 262.756 762.004 272.335C761.133 275.445 758.396 277.995 753.794 279.985C750.186 281.478 746.89 282.224 743.904 282.224C741.665 282.224 739.923 281.789 738.679 280.918C736.067 278.803 729.163 269.474 717.967 252.929C714.484 247.829 709.197 240.178 702.107 229.978C693.523 259.086 687.303 278.368 683.447 287.822C681.83 291.679 679.155 293.607 675.423 293.607C671.816 293.607 668.83 291.679 666.467 287.822C664.228 283.966 663.419 280.483 664.041 277.373C664.663 274.139 668.893 261.45 676.73 239.307C684.691 217.04 689.169 203.73 690.164 199.376C690.786 197.012 692.528 195.084 695.389 193.591C698.25 192.099 700.987 191.352 703.599 191.352C706.087 191.352 707.891 191.974 709.011 193.218C710.255 194.338 717.221 204.414 729.909 223.447L747.263 249.384C758.583 211.442 766.358 188.242 770.587 179.783C772.329 176.549 775.003 174.932 778.611 174.932C782.218 174.932 785.142 176.3 787.381 179.037C789.744 181.774 790.926 184.884 790.926 188.367C790.926 190.855 789.371 196.142 786.261 204.227ZM869.645 233.896C866.535 243.723 859.569 253.115 848.746 262.072C837.55 271.277 827.101 275.88 817.398 275.88C809.934 275.88 803.963 273.517 799.485 268.789C795.504 264.436 793.514 258.962 793.514 252.369C793.514 250.379 793.7 248.326 794.074 246.211C796.437 235.638 802.533 225.126 812.36 214.677C823.68 202.735 835.436 196.763 847.626 196.763C852.851 196.763 856.521 198.07 858.636 200.682C868.09 201.18 872.817 206.777 872.817 217.476C872.817 222.078 871.76 227.552 869.645 233.896ZM852.291 218.968C851.047 218.471 849.741 218.222 848.373 218.222C842.153 218.222 834.938 221.892 826.728 229.231C818.518 236.571 813.79 243.164 812.546 249.01C811.924 252.12 812.92 253.675 815.532 253.675C818.642 253.675 822.498 252.493 827.101 250.13C831.828 247.766 835.436 245.341 837.924 242.853C840.411 240.24 843.21 236.446 846.32 231.47C849.43 226.37 851.421 222.203 852.291 218.968Z" fill="white"/>
</svg>
